<svg width="120" height="40" viewBox="0 0 120 40" fill="none" xmlns="http://www.w3.org/2000/svg">
<path fill-rule="evenodd" clip-rule="evenodd" d="M39.6144 23.965C39.8673 22.6949 40 21.3815 40 20.0371C40 18.3014 39.7789 16.6173 39.3633 15.0114H26.2103V23.965H39.6144ZM37.0389 30.5151H26.2103V39.0541C30.7513 37.5722 34.5776 34.5091 37.0389 30.5151ZM18.2659 39.963C8.03212 39.084 0 30.4986 0 20.0371C0 8.99141 8.9543 0.0371094 20 0.0371094C26.7318 0.0371094 32.6869 3.36305 36.3115 8.46135H18.2659V39.963Z" fill="white"/>
<path d="M58.973 11.0455C58.973 7.47656 56.7571 5.44176 53.8647 5.44176C50.9563 5.44176 48.7564 7.47656 48.7564 11.0455C48.7564 14.5984 50.9563 16.6491 53.8647 16.6491C56.7571 16.6491 58.973 14.6143 58.973 11.0455ZM56.6346 11.0455C56.6346 13.3572 55.5373 14.609 53.8647 14.609C52.1868 14.609 51.0948 13.3572 51.0948 11.0455C51.0948 8.73366 52.1868 7.48189 53.8647 7.48189C55.5373 7.48189 56.6346 8.73366 56.6346 11.0455ZM69.8062 5.59091H67.5104V12.4517H67.4145L62.7057 5.59091H60.6816V16.5H62.988V9.63388H63.0679L67.814 16.5H69.8062V5.59091ZM71.7118 16.5H78.6951V14.5984H74.0183V5.59091H71.7118V16.5ZM82.529 5.59091H80.2226V16.5H82.529V5.59091ZM93.5513 5.59091H91.2555V12.4517H91.1596L86.4508 5.59091H84.4267V16.5H86.7331V9.63388H86.813L91.5591 16.5H93.5513V5.59091ZM95.4569 16.5H102.829V14.5984H97.7634V11.9936H102.43V10.092H97.7634V7.49254H102.808V5.59091H95.4569V16.5ZM48.9482 34.5H51.2546V29.9936H55.6918V28.092H51.2546V25.4925H56.1712V23.5909H48.9482V34.5ZM58.2406 34.5L59.0502 32.0124H62.9867L63.7963 34.5H66.2679L62.5073 23.5909H59.535L55.769 34.5H58.2406ZM59.6362 30.212L60.9785 26.0838H61.0637L62.4061 30.212H59.6362ZM67.581 34.5H69.8874V31.3999L71.022 30.0149L74.0103 34.5H76.7695L72.6733 28.4755L76.7216 23.5909H73.957L70.0312 28.4009H69.8874V23.5909H67.581V34.5ZM77.5073 25.4925H80.8471V34.5H83.127V25.4925H86.4668V23.5909H77.5073V25.4925ZM94.6806 23.5909V30.4783C94.6806 31.7248 93.807 32.625 92.4647 32.625C91.1277 32.625 90.2488 31.7248 90.2488 30.4783V23.5909H87.9423V30.6754C87.9423 33.0618 89.7427 34.6545 92.4647 34.6545C95.176 34.6545 96.987 33.0618 96.987 30.6754V23.5909H94.6806ZM98.8847 34.5H101.191V30.6328H102.874L104.941 34.5H107.487L105.17 30.2599C106.411 29.7273 107.098 28.646 107.098 27.1545C107.098 24.9865 105.666 23.5909 103.189 23.5909H98.8847V34.5ZM101.191 28.7791V25.4766H102.747C104.078 25.4766 104.723 26.0678 104.723 27.1545C104.723 28.2358 104.078 28.7791 102.757 28.7791H101.191ZM110.609 34.5L111.418 32.0124H115.355L116.165 34.5H118.636L114.875 23.5909H111.903L108.137 34.5H110.609ZM112.004 30.212L113.347 26.0838H113.432L114.774 30.212H112.004Z" fill="white"/>
</svg>
