<svg width="14" height="18" viewBox="0 0 14 18" fill="none" xmlns="http://www.w3.org/2000/svg">
<path fill-rule="evenodd" clip-rule="evenodd" d="M13.6668 7.33317C13.6668 3.65127 10.6821 0.666504 7.00016 0.666504C3.31826 0.666504 0.333496 3.65127 0.333496 7.33317C0.333496 10.4539 1.85892 11.6806 3.27484 12.8193C4.21071 13.5719 5.09873 14.286 5.46683 15.4832L5.89183 16.7665C6.01099 17.121 6.3517 17.3527 6.72516 17.3332H7.19183C7.56529 17.3527 7.906 17.121 8.02516 16.7665L8.45016 15.4832C8.84836 14.2952 9.7456 13.5828 10.6856 12.8365C12.126 11.6929 13.6668 10.4696 13.6668 7.33317ZM7.00016 2.33317C4.23874 2.33317 2.00016 4.57175 2.00016 7.33317C2.00016 9.6665 2.9835 10.4498 4.35016 11.4998C5.49917 12.2763 6.41523 13.3508 7.00016 14.6082C7.58791 13.3526 8.50339 12.2788 9.65016 11.4998C11.0168 10.4498 12.0002 9.6665 12.0002 7.33317C12.0002 4.57175 9.76159 2.33317 7.00016 2.33317ZM9.57516 5.78317L8.0335 7.33317L9.57516 8.88317C9.65573 8.95878 9.70143 9.06435 9.70143 9.17484C9.70143 9.28533 9.65573 9.39089 9.57516 9.4665L9.1335 9.90817C9.05788 9.98874 8.95232 10.0344 8.84183 10.0344C8.73134 10.0344 8.62577 9.98874 8.55016 9.90817L7.00016 8.3665L5.45016 9.90817C5.37455 9.98874 5.26898 10.0344 5.1585 10.0344C5.04801 10.0344 4.94244 9.98874 4.86683 9.90817L4.42516 9.4665C4.3446 9.39089 4.2989 9.28533 4.2989 9.17484C4.2989 9.06435 4.3446 8.95878 4.42516 8.88317L5.96683 7.33317L4.42516 5.78317C4.3446 5.70756 4.2989 5.60199 4.2989 5.4915C4.2989 5.38102 4.3446 5.27545 4.42516 5.19984L4.86683 4.75817C4.94244 4.67761 5.04801 4.6319 5.1585 4.6319C5.26898 4.6319 5.37455 4.67761 5.45016 4.75817L7.00016 6.29984L8.55016 4.75817C8.62577 4.67761 8.73134 4.6319 8.84183 4.6319C8.95232 4.6319 9.05788 4.67761 9.1335 4.75817L9.57516 5.19984C9.65573 5.27545 9.70143 5.38102 9.70143 5.4915C9.70143 5.60199 9.65573 5.70756 9.57516 5.78317Z" fill="#FE346E"/>
</svg>
