<svg width="22" height="21" viewBox="0 0 22 21" fill="none" xmlns="http://www.w3.org/2000/svg">
<path fill-rule="evenodd" clip-rule="evenodd" d="M18.0164 9.98573C18.0164 12.1917 16.2239 13.98 14.0127 13.98H5.00455C4.20238 13.9648 3.42744 14.2704 2.85259 14.8288L0.850773 16.826C0.759017 16.921 0.632693 16.975 0.500455 16.9757C0.224061 16.9757 0 16.7522 0 16.4765V3.99429C0 1.78831 1.79249 0 4.00364 0H14.0127C16.2239 0 18.0164 1.78831 18.0164 3.99429V9.98573ZM2.00182 3.99429V12.9815C2.86809 12.3333 3.92171 11.9829 5.00455 11.9829H14.0127C15.1183 11.9829 16.0146 11.0887 16.0146 9.98573V3.99429C16.0146 2.8913 15.1183 1.99715 14.0127 1.99715H4.00364C2.89807 1.99715 2.00182 2.8913 2.00182 3.99429ZM12.5114 7.98859H13.5123C13.7887 7.98859 14.0127 7.76505 14.0127 7.4893V6.49073C14.0127 6.21498 13.7887 5.99144 13.5123 5.99144H12.5114C12.235 5.99144 12.0109 6.21498 12.0109 6.49073V7.4893C12.0109 7.76505 12.235 7.98859 12.5114 7.98859ZM9.50864 7.98859H8.50773C8.23134 7.98859 8.00728 7.76505 8.00728 7.4893V6.49073C8.00728 6.21498 8.23134 5.99144 8.50773 5.99144H9.50864C9.78504 5.99144 10.0091 6.21498 10.0091 6.49073V7.4893C10.0091 7.76505 9.78504 7.98859 9.50864 7.98859ZM6.00546 7.4893V6.49073C6.00546 6.21498 5.7814 5.99144 5.505 5.99144H4.50409C4.2277 5.99144 4.00364 6.21498 4.00364 6.49073V7.4893C4.00364 7.76505 4.2277 7.98859 4.50409 7.98859H5.505C5.7814 7.98859 6.00546 7.76505 6.00546 7.4893ZM16.0146 15.9772C18.2257 15.9772 20.0182 14.1889 20.0182 11.9829V3.99429C21.1159 4.00525 22.0001 4.8962 22 5.99144V20.5007C22 20.7765 21.7759 21 21.4995 21C21.3673 20.9992 21.241 20.9452 21.1492 20.8502L19.1474 18.8531C18.5824 18.2886 17.815 17.9724 17.0155 17.9743H6.00546C4.89989 17.9743 4.00364 17.0802 4.00364 15.9772H16.0146Z" fill="#40DC75"/>
</svg>
