<svg width="18" height="18" viewBox="0 0 18 18" fill="none" xmlns="http://www.w3.org/2000/svg">
<path fill-rule="evenodd" clip-rule="evenodd" d="M0.666504 8.99984C0.666504 4.39746 4.39746 0.666504 8.99984 0.666504C11.21 0.666504 13.3296 1.54448 14.8924 3.10728C16.4552 4.67008 17.3332 6.7897 17.3332 8.99984C17.3332 13.6022 13.6022 17.3332 8.99984 17.3332C4.39746 17.3332 0.666504 13.6022 0.666504 8.99984ZM12.3165 12.7748L12.7582 12.3332C12.8401 12.2532 12.8863 12.1435 12.8863 12.029C12.8863 11.9145 12.8401 11.8048 12.7582 11.7248L9.73317 8.69984V4.4165C9.73317 4.18639 9.54662 3.99984 9.3165 3.99984H8.68317C8.45305 3.99984 8.2665 4.18639 8.2665 4.4165V9.1415C8.26486 9.25449 8.31012 9.36311 8.3915 9.4415L11.7248 12.7748C11.8897 12.9347 12.1517 12.9347 12.3165 12.7748Z" fill="#2B63C0"/>
</svg>
