<svg width="20" height="11" viewBox="0 0 20 11" fill="none" xmlns="http://www.w3.org/2000/svg">
<path fill-rule="evenodd" clip-rule="evenodd" d="M18.4582 0.85839L19.0415 1.45006C19.1204 1.52829 19.1648 1.63479 19.1648 1.74589C19.1648 1.85699 19.1204 1.96349 19.0415 2.04172L10.2082 10.8751C10.13 10.9539 10.0235 10.9983 9.91238 10.9983C9.80128 10.9983 9.69478 10.9539 9.61654 10.8751L5.12488 6.38339C5.046 6.30515 5.00163 6.19866 5.00163 6.08756C5.00163 5.97646 5.046 5.86996 5.12488 5.79172L5.70821 5.20839C5.78645 5.12951 5.89294 5.08514 6.00404 5.08514C6.11514 5.08514 6.22164 5.12951 6.29988 5.20839L7.83321 6.77506L13.6665 0.900057C13.8314 0.740237 14.0934 0.740237 14.2582 0.900057L14.8415 1.49172C14.9204 1.56996 14.9648 1.67646 14.9648 1.78756C14.9648 1.89866 14.9204 2.00515 14.8415 2.08339L9.00821 7.91672L9.90821 8.81672L17.8665 0.85839C18.0314 0.698571 18.2934 0.698571 18.4582 0.85839ZM6.92488 9.99174L2.13321 5.20841C2.05497 5.12953 1.94848 5.08516 1.83738 5.08516C1.72628 5.08516 1.61978 5.12953 1.54154 5.20841L0.95821 5.79174C0.87933 5.86998 0.834961 5.97648 0.834961 6.08758C0.834961 6.19868 0.87933 6.30517 0.95821 6.38341L5.44988 10.8751C5.52811 10.954 5.63461 10.9983 5.74571 10.9983C5.85681 10.9983 5.96331 10.954 6.04154 10.8751L6.92488 9.99174Z" fill="white"/>
</svg>
