<svg width="18" height="10" viewBox="0 0 18 10" fill="none" xmlns="http://www.w3.org/2000/svg">
<path fill-rule="evenodd" clip-rule="evenodd" d="M5.9279 8.79485C5.9279 8.92817 5.87466 9.05597 5.78 9.14985L5.07 9.84985C4.97612 9.94451 4.84832 9.99775 4.715 9.99775C4.58168 9.99775 4.45388 9.94451 4.36 9.84985L0.22 5.71985C0.0793075 5.57934 0.000175052 5.3887 0 5.18985V4.80985C0.00230401 4.61144 0.081116 4.42157 0.22 4.27985L4.35 0.149852C4.44388 0.055196 4.57168 0.00195312 4.705 0.00195312C4.83832 0.00195312 4.96612 0.055196 5.06 0.149852L5.77 0.859852C5.86406 0.952016 5.91707 1.07816 5.91707 1.20985C5.91707 1.34154 5.86406 1.46769 5.77 1.55985L2.33 4.99985L5.78 8.43985C5.87466 8.53374 5.9279 8.66153 5.9279 8.79485ZM13.285 0.00195312C13.1517 0.00195312 13.0239 0.055196 12.93 0.149852L12.22 0.849852C12.1253 0.943736 12.0721 1.07153 12.0721 1.20485C12.0721 1.33817 12.1253 1.46597 12.22 1.55985L15.67 4.99985L12.22 8.43985C12.1259 8.53202 12.0729 8.65816 12.0729 8.78985C12.0729 8.92154 12.1259 9.04769 12.22 9.13985L12.93 9.84985C13.0239 9.94451 13.1517 9.99775 13.285 9.99775C13.4183 9.99775 13.5461 9.94451 13.64 9.84985L17.78 5.71985C17.9189 5.57813 17.9977 5.38827 18 5.18985V4.80985C17.9998 4.61101 17.9207 4.42037 17.78 4.27985L13.64 0.149852C13.5461 0.055196 13.4183 0.00195312 13.285 0.00195312Z" fill="#2B63C0"/>
</svg>
