<svg width="18" height="18" viewBox="0 0 18 18" fill="none" xmlns="http://www.w3.org/2000/svg">
<path fill-rule="evenodd" clip-rule="evenodd" d="M0.5 0H17.5C17.7761 0 18 0.223858 18 0.5V1.5C18 1.77614 17.7761 2 17.5 2H0.5C0.223858 2 0 1.77614 0 1.5V0.5C0 0.223858 0.223858 0 0.5 0ZM0.5 6H9.5C9.77614 6 10 5.77614 10 5.5V4.5C10 4.22386 9.77614 4 9.5 4H0.5C0.223858 4 0 4.22386 0 4.5V5.5C0 5.77614 0.223858 6 0.5 6ZM18 8.5V9.5C18 9.77614 17.7761 10 17.5 10H0.5C0.223858 10 0 9.77614 0 9.5V8.5C0 8.22386 0.223858 8 0.5 8H17.5C17.7761 8 18 8.22386 18 8.5ZM17.5 16H0.5C0.223858 16 0 16.2239 0 16.5V17.5C0 17.7761 0.223858 18 0.5 18H17.5C17.7761 18 18 17.7761 18 17.5V16.5C18 16.2239 17.7761 16 17.5 16ZM9.5 14H0.5C0.223858 14 0 13.7761 0 13.5V12.5C0 12.2239 0.223858 12 0.5 12H9.5C9.77614 12 10 12.2239 10 12.5V13.5C10 13.7761 9.77614 14 9.5 14Z" fill="#333333"/>
</svg>
