<svg width="16" height="20" viewBox="0 0 16 20" fill="none" xmlns="http://www.w3.org/2000/svg">
<path fill-rule="evenodd" clip-rule="evenodd" d="M14.7667 4.26683C15.2356 4.73522 15.4994 5.37068 15.5 6.0335V10.9085C15.4985 12.9646 14.5483 14.9049 12.925 16.1668L9.525 18.8168C9.23183 19.0444 8.8711 19.1675 8.5 19.1668H7.5C7.1289 19.1675 6.76817 19.0444 6.475 18.8168L3.075 16.1668C1.45172 14.9049 0.501543 12.9646 0.5 10.9085V6.0335C0.500584 5.37068 0.764358 4.73522 1.23333 4.26683L4.175 1.32516C4.48816 1.01013 4.91413 0.833145 5.35833 0.833497H10.6417C11.0859 0.833145 11.5118 1.01013 11.825 1.32516L14.7667 4.26683ZM10.7013 11.0085C10.7013 10.898 10.6556 10.7925 10.575 10.7169L9.03333 9.16686L10.575 7.61686C10.6556 7.54125 10.7013 7.43568 10.7013 7.32519C10.7013 7.21471 10.6556 7.10914 10.575 7.03353L10.1333 6.59186C10.0577 6.5113 9.95215 6.4656 9.84167 6.4656C9.73118 6.4656 9.62561 6.5113 9.55 6.59186L8 8.13353L6.45 6.59186C6.37439 6.5113 6.26882 6.4656 6.15833 6.4656C6.04784 6.4656 5.94228 6.5113 5.86667 6.59186L5.425 7.03353C5.34444 7.10914 5.29873 7.21471 5.29873 7.32519C5.29873 7.43568 5.34444 7.54125 5.425 7.61686L6.96667 9.16686L5.425 10.7169C5.34444 10.7925 5.29873 10.898 5.29873 11.0085C5.29873 11.119 5.34444 11.2246 5.425 11.3002L5.86667 11.7419C5.94228 11.8224 6.04784 11.8681 6.15833 11.8681C6.26882 11.8681 6.37439 11.8224 6.45 11.7419L8 10.2002L9.55 11.7419C9.62561 11.8224 9.73118 11.8681 9.84167 11.8681C9.95215 11.8681 10.0577 11.8224 10.1333 11.7419L10.575 11.3002C10.6556 11.2246 10.7013 11.119 10.7013 11.0085Z" fill="#FFA41D"/>
</svg>
