<svg width="10" height="10" viewBox="0 0 10 10" fill="none" xmlns="http://www.w3.org/2000/svg">
<path fill-rule="evenodd" clip-rule="evenodd" d="M5 0C2.23858 0 0 2.23858 0 5C0 7.76142 2.23858 10 5 10C7.76142 10 10 7.76142 10 5C10 3.67392 9.47322 2.40215 8.53553 1.46447C7.59785 0.526784 6.32608 0 5 0ZM5 9C2.79086 9 1 7.20914 1 5C1 2.79086 2.79086 1 5 1C7.20914 1 9 2.79086 9 5C9 6.06087 8.57857 7.07828 7.82843 7.82843C7.07828 8.57857 6.06087 9 5 9ZM6.28 3.45509L6.545 3.72009C6.59334 3.76546 6.62076 3.8288 6.62076 3.89509C6.62076 3.96138 6.59334 4.02472 6.545 4.07009L5.62 5.00009L6.545 5.93009C6.59334 5.97546 6.62076 6.0388 6.62076 6.10509C6.62076 6.17138 6.59334 6.23472 6.545 6.28009L6.28 6.54509C6.23463 6.59343 6.17129 6.62085 6.105 6.62085C6.03871 6.62085 5.97537 6.59343 5.93 6.54509L5 5.62009L4.07 6.54509C4.02463 6.59343 3.96129 6.62085 3.895 6.62085C3.82871 6.62085 3.76537 6.59343 3.72 6.54509L3.455 6.28009C3.40666 6.23472 3.37924 6.17138 3.37924 6.10509C3.37924 6.0388 3.40666 5.97546 3.455 5.93009L4.38 5.00009L3.455 4.07009C3.40666 4.02472 3.37924 3.96138 3.37924 3.89509C3.37924 3.8288 3.40666 3.76546 3.455 3.72009L3.72 3.45509C3.76537 3.40675 3.82871 3.37933 3.895 3.37933C3.96129 3.37933 4.02463 3.40675 4.07 3.45509L5 4.38009L5.93 3.45509C5.97537 3.40675 6.03871 3.37933 6.105 3.37933C6.17129 3.37933 6.23463 3.40675 6.28 3.45509Z" fill="#FE346E"/>
</svg>
