<svg width="18" height="18" viewBox="0 0 18 18" fill="none" xmlns="http://www.w3.org/2000/svg">
<path fill-rule="evenodd" clip-rule="evenodd" d="M8.99984 0.666504C4.39746 0.666504 0.666504 4.39746 0.666504 8.99984C0.666504 13.6022 4.39746 17.3332 8.99984 17.3332C13.6022 17.3332 17.3332 13.6022 17.3332 8.99984C17.3332 6.7897 16.4552 4.67008 14.8924 3.10728C13.3296 1.54448 11.21 0.666504 8.99984 0.666504ZM8.99984 15.6665C5.31794 15.6665 2.33317 12.6817 2.33317 8.99984C2.33317 5.31794 5.31794 2.33317 8.99984 2.33317C12.6817 2.33317 15.6665 5.31794 15.6665 8.99984C15.6665 10.7679 14.9641 12.4636 13.7139 13.7139C12.4636 14.9641 10.7679 15.6665 8.99984 15.6665ZM11.1332 6.42487L11.5748 6.86653C11.6554 6.94215 11.7011 7.04771 11.7011 7.1582C11.7011 7.26869 11.6554 7.37426 11.5748 7.44987L10.0332 8.99987L11.5748 10.5499C11.6554 10.6255 11.7011 10.731 11.7011 10.8415C11.7011 10.952 11.6554 11.0576 11.5748 11.1332L11.1332 11.5749C11.0576 11.6554 10.952 11.7011 10.8415 11.7011C10.731 11.7011 10.6254 11.6554 10.5498 11.5749L8.99984 10.0332L7.44984 11.5749C7.37423 11.6554 7.26866 11.7011 7.15817 11.7011C7.04768 11.7011 6.94211 11.6554 6.8665 11.5749L6.42484 11.1332C6.34427 11.0576 6.29857 10.952 6.29857 10.8415C6.29857 10.731 6.34427 10.6255 6.42484 10.5499L7.9665 8.99987L6.42484 7.44987C6.34427 7.37426 6.29857 7.26869 6.29857 7.1582C6.29857 7.04771 6.34427 6.94215 6.42484 6.86653L6.8665 6.42487C6.94211 6.3443 7.04768 6.2986 7.15817 6.2986C7.26866 6.2986 7.37423 6.3443 7.44984 6.42487L8.99984 7.96653L10.5498 6.42487C10.6254 6.3443 10.731 6.2986 10.8415 6.2986C10.952 6.2986 11.0576 6.3443 11.1332 6.42487Z" fill="white"/>
</svg>
