<svg width="18" height="18" viewBox="0 0 18 18" fill="none" xmlns="http://www.w3.org/2000/svg">
<path fill-rule="evenodd" clip-rule="evenodd" d="M8.99984 0.666626C4.39746 0.666626 0.666504 4.39759 0.666504 8.99996C0.666504 13.6023 4.39746 17.3333 8.99984 17.3333C13.6022 17.3333 17.3332 13.6023 17.3332 8.99996C17.3332 6.78982 16.4552 4.67021 14.8924 3.1074C13.3296 1.5446 11.21 0.666626 8.99984 0.666626ZM8.99984 15.6666C5.31794 15.6666 2.33317 12.6819 2.33317 8.99996C2.33317 5.31806 5.31794 2.33329 8.99984 2.33329C12.6817 2.33329 15.6665 5.31806 15.6665 8.99996C15.6665 10.7681 14.9641 12.4638 13.7139 13.714C12.4636 14.9642 10.7679 15.6666 8.99984 15.6666ZM11.5998 6.07502C11.7619 5.91621 12.0212 5.91621 12.1832 6.07502L12.5998 6.51669C12.6787 6.59493 12.7231 6.70143 12.7231 6.81252C12.7231 6.92362 12.6787 7.03012 12.5998 7.10836L7.9165 11.7917C7.84089 11.8723 7.73532 11.918 7.62484 11.918C7.51435 11.918 7.40878 11.8723 7.33317 11.7917L5.37484 9.81669C5.29596 9.73845 5.25159 9.63196 5.25159 9.52086C5.25159 9.40976 5.29596 9.30326 5.37484 9.22502L5.8165 8.78336C5.89211 8.70279 5.99768 8.65709 6.10817 8.65709C6.21866 8.65709 6.32423 8.70279 6.39984 8.78336L7.64984 10.025L11.5998 6.07502Z" fill="white"/>
</svg>
