<svg width="16" height="16" viewBox="0 0 16 16" fill="none" xmlns="http://www.w3.org/2000/svg">
<path fill-rule="evenodd" clip-rule="evenodd" d="M15.0083 3.34167L12.6583 0.991667C12.3452 0.676634 11.9192 0.499649 11.475 0.5H2.16667C1.24619 0.5 0.5 1.24619 0.5 2.16667V13.8333C0.5 14.7538 1.24619 15.5 2.16667 15.5H13.8333C14.7538 15.5 15.5 14.7538 15.5 13.8333V4.525C15.5004 4.0808 15.3234 3.65483 15.0083 3.34167ZM5.5 11.75V10.9167C5.5 10.6865 5.68655 10.5 5.91667 10.5H10.0833C10.3135 10.5 10.5 10.6865 10.5 10.9167V11.75C10.5 11.9801 10.3135 12.1667 10.0833 12.1667H5.91667C5.68655 12.1667 5.5 11.9801 5.5 11.75ZM12.1667 13.8333H13.8333V4.525L11.475 2.16667H10.5V3.41667C10.5 3.64679 10.3135 3.83333 10.0833 3.83333H5.91667C5.68655 3.83333 5.5 3.64679 5.5 3.41667V2.16667H2.16667V13.8333H3.83333V7.58333C3.83333 7.35322 4.01988 7.16667 4.25 7.16667H11.75C11.9801 7.16667 12.1667 7.35322 12.1667 7.58333V13.8333Z" fill="white"/>
</svg>
