<svg width="20" height="11" viewBox="0 0 20 11" fill="none" xmlns="http://www.w3.org/2000/svg">
<path fill-rule="evenodd" clip-rule="evenodd" d="M18.4582 0.858146L19.0415 1.44981C19.1204 1.52805 19.1648 1.63455 19.1648 1.74565C19.1648 1.85675 19.1204 1.96324 19.0415 2.04148L10.2082 10.8748C10.13 10.9537 10.0235 10.9981 9.91238 10.9981C9.80128 10.9981 9.69478 10.9537 9.61654 10.8748L5.12488 6.38315C5.046 6.30491 5.00163 6.19841 5.00163 6.08731C5.00163 5.97621 5.046 5.86972 5.12488 5.79148L5.70821 5.20815C5.78645 5.12927 5.89294 5.0849 6.00404 5.0849C6.11514 5.0849 6.22164 5.12927 6.29988 5.20815L7.83321 6.77481L13.6665 0.899812C13.8314 0.739993 14.0934 0.739993 14.2582 0.899812L14.8415 1.49148C14.9204 1.56972 14.9648 1.67621 14.9648 1.78731C14.9648 1.89841 14.9204 2.00491 14.8415 2.08315L9.00821 7.91648L9.90821 8.81648L17.8665 0.858146C18.0314 0.698326 18.2934 0.698326 18.4582 0.858146ZM6.92488 9.9915L2.13321 5.20817C2.05497 5.12929 1.94848 5.08492 1.83738 5.08492C1.72628 5.08492 1.61978 5.12929 1.54154 5.20817L0.95821 5.7915C0.87933 5.86973 0.834961 5.97623 0.834961 6.08733C0.834961 6.19843 0.87933 6.30493 0.95821 6.38317L5.44988 10.8748C5.52811 10.9537 5.63461 10.9981 5.74571 10.9981C5.85681 10.9981 5.96331 10.9537 6.04154 10.8748L6.92488 9.9915Z" fill="#0FBE7B"/>
</svg>
