<svg width="20" height="20" viewBox="0 0 20 20" fill="none" xmlns="http://www.w3.org/2000/svg">
<path fill-rule="evenodd" clip-rule="evenodd" d="M12.5 3.33329H16.25C16.4801 3.33329 16.6667 3.51984 16.6667 3.74996V4.58329C16.6667 4.81341 16.4801 4.99996 16.25 4.99996H3.75001C3.51989 4.99996 3.33334 4.81341 3.33334 4.58329V3.74996C3.33334 3.51984 3.51989 3.33329 3.75001 3.33329H7.50001V2.49996C7.50001 2.03972 7.87311 1.66663 8.33334 1.66663H11.6667C12.1269 1.66663 12.5 2.03972 12.5 2.49996V3.33329ZM4.16668 6.66663L4.89168 16.7833C4.95305 17.6579 5.68157 18.3354 6.55834 18.3333H13.4583C14.3351 18.3354 15.0636 17.6579 15.125 16.7833L15.8333 6.66663H4.16668ZM12.575 14.0499C12.6556 14.1255 12.7013 14.2311 12.7013 14.3416C12.7013 14.4521 12.6556 14.5576 12.575 14.6332L12.1333 15.0749C12.0577 15.1555 11.9522 15.2012 11.8417 15.2012C11.7312 15.2012 11.6256 15.1555 11.55 15.0749L10 13.5332L8.45001 15.0749C8.3744 15.1555 8.26883 15.2012 8.15834 15.2012C8.04785 15.2012 7.94229 15.1555 7.86668 15.0749L7.42501 14.6332C7.34445 14.5576 7.29874 14.4521 7.29874 14.3416C7.29874 14.2311 7.34445 14.1255 7.42501 14.0499L8.96668 12.4999L7.42501 10.9499C7.34445 10.8743 7.29874 10.7687 7.29874 10.6582C7.29874 10.5478 7.34445 10.4422 7.42501 10.3666L7.86668 9.92491C7.94229 9.84434 8.04785 9.79864 8.15834 9.79864C8.26883 9.79864 8.3744 9.84434 8.45001 9.92491L10 11.4666L11.55 9.92491C11.6256 9.84434 11.7312 9.79864 11.8417 9.79864C11.9522 9.79864 12.0577 9.84434 12.1333 9.92491L12.575 10.3666C12.6556 10.4422 12.7013 10.5478 12.7013 10.6582C12.7013 10.7687 12.6556 10.8743 12.575 10.9499L11.0333 12.4999L12.575 14.0499Z" fill="#FE346E"/>
</svg>
