<svg width="22" height="24" viewBox="0 0 22 24" fill="none" xmlns="http://www.w3.org/2000/svg">
<path d="M16.8531 16.6808L14.7866 15.9921L14.0447 14.5083C14.7131 13.8281 15.1771 12.928 15.3336 11.9892L15.4261 11.4346H16.2174C16.9366 11.4346 17.5217 10.8495 17.5217 10.1303V7.39112C17.5217 3.79504 14.5961 0.869385 11 0.869385C7.3947 0.869385 4.47826 3.78665 4.47826 7.39112V10.1303C4.47826 10.697 4.84178 11.1803 5.34783 11.3598V11.8694C5.34783 12.5886 5.93296 13.1737 6.65217 13.1737H7.034C7.22248 13.5832 7.46643 13.9624 7.7633 14.303C7.82487 14.3738 7.88909 14.4424 7.95487 14.5092L7.21339 15.9921L5.14683 16.6809C2.744 17.4821 1 20.0116 1 22.6955C1 22.9356 1.19465 23.1303 1.43478 23.1303H20.5652C20.8053 23.1303 21 22.9356 21 22.6955C21 20.0116 19.256 17.4821 16.8531 16.6808ZM16.6522 10.1303C16.6522 10.37 16.4571 10.565 16.2174 10.565H15.5538C15.6643 9.70895 15.738 8.79795 15.7676 7.90069C15.7685 7.87538 15.7692 7.85078 15.77 7.82591H16.6522V10.1303ZM5.78261 10.565C5.54287 10.565 5.34783 10.37 5.34783 10.1303V7.82591H6.23035C6.23178 7.87125 6.2333 7.91682 6.235 7.96269C6.23504 7.96425 6.23513 7.96578 6.23517 7.96734C6.23517 7.96747 6.23517 7.9676 6.23517 7.96773C6.26561 8.84043 6.3383 9.72778 6.4463 10.565H5.78261V10.565ZM6.65217 12.3042C6.41244 12.3042 6.21739 12.1091 6.21739 11.8694V11.4346H6.57383L6.66635 11.9893C6.684 12.0948 6.7057 12.1998 6.73078 12.3042H6.65217ZM6.21813 6.95634H5.36435C5.58457 4.04238 8.01639 1.73895 11 1.73895C13.9703 1.73895 16.4129 4.04208 16.6356 6.95634H15.7819C15.7506 4.55517 13.7953 2.60852 11.3892 2.60852H10.6109C8.20487 2.60852 6.24939 4.55517 6.21813 6.95634ZM10.6109 3.47808H11.3891C13.3373 3.47808 14.9142 5.0716 14.913 7.01765C14.913 7.15447 14.912 7.2736 14.9097 7.38199C14.9097 7.38338 14.9096 7.38482 14.9096 7.38625L14.3658 7.30856C12.8884 7.0976 11.4934 6.40012 10.4379 5.34456C10.3563 5.26304 10.2457 5.21721 10.1304 5.21721C8.96278 5.21721 7.84504 5.74921 7.10617 6.64799C7.28826 4.8776 8.78491 3.47808 10.6109 3.47808ZM7.63217 12.3042C7.41452 11.5801 7.16548 9.44969 7.11043 8.08447L7.69561 7.30421C8.23304 6.58786 9.06917 6.14278 9.95861 6.09169C11.1289 7.20543 12.6429 7.94091 14.2428 8.16934L14.8829 8.26082C14.8401 9.16886 14.7527 10.0801 14.6274 10.9181C14.6274 10.9184 14.6273 10.9187 14.6273 10.919C14.5875 11.1884 14.5561 11.3618 14.4759 11.8461C14.2457 13.2272 13.2151 14.4761 11.8547 14.8163C11.2949 14.956 10.705 14.956 10.1455 14.8163C9.29604 14.6039 8.51717 14.0162 8.01452 13.1737H8.90087C9.08035 13.6798 9.56361 14.0433 10.1304 14.0433H11C11.7207 14.0433 12.3043 13.4596 12.3043 12.7389C12.3043 12.0197 11.7192 11.4346 11 11.4346H10.1304C9.551 11.4346 9.07487 11.8089 8.90013 12.3042H7.63217ZM10.0939 15.6962C10.3921 15.759 10.6961 15.7911 11 15.7911C11.2379 15.7911 11.4758 15.7712 11.711 15.7326L10.9427 16.5451L10.0939 15.6962ZM10.345 17.1772L8.96596 18.6355C8.5863 17.9088 8.26009 17.1525 7.99252 16.3783L8.51039 15.3425L10.345 17.1772ZM13.4159 15.1952L14.0074 16.3782C13.7394 17.1538 13.4131 17.9103 13.0338 18.6362L11.5578 17.1602L13.4159 15.1952ZM9.69565 12.7389C9.69565 12.4989 9.89035 12.3042 10.1304 12.3042H11C11.2397 12.3042 11.4348 12.4992 11.4348 12.7389C11.4348 12.979 11.24 13.1737 11 13.1737H10.1304C9.8907 13.1737 9.69565 12.9787 9.69565 12.7389ZM1.88696 22.2607C2.05926 20.1068 3.4927 18.1491 5.42183 17.5058L7.252 16.8959C7.5873 17.823 8.0027 18.7242 8.48952 19.5802C8.49035 19.5817 8.49113 19.5832 8.49196 19.5846C8.49196 19.5846 8.492 19.5846 8.492 19.5847C8.8477 20.2103 9.24804 20.8216 9.68209 21.402L10.217 22.2607H1.88696ZM11 21.8731L10.4103 20.9265C10.4037 20.9159 10.3967 20.9056 10.3892 20.8956C10.0371 20.4259 9.7087 19.9347 9.40956 19.432L10.9601 17.7923L12.594 19.4261C12.2928 19.9325 11.9633 20.4257 11.6109 20.8955C11.5896 20.9239 11.6198 20.8791 11 21.8731ZM11.783 22.2607L12.3179 21.4021C12.7538 20.8195 13.157 20.2032 13.5163 19.5703C13.5185 19.5664 13.5205 19.5625 13.5227 19.5587C13.523 19.5582 13.5232 19.5578 13.5235 19.5573C14.0041 18.7095 14.4152 17.8161 14.748 16.8959L16.5781 17.5058C18.5073 18.1491 19.9407 20.1068 20.113 22.2607H11.783Z" fill="white" stroke="white" stroke-width="0.3"/>
</svg>
