<svg width="20" height="20" viewBox="0 0 20 20" fill="none" xmlns="http://www.w3.org/2000/svg">
<path fill-rule="evenodd" clip-rule="evenodd" d="M3.24256 2.57457H9.97031C10.3837 2.57457 10.7178 2.24044 10.7178 1.82706C10.7178 1.41369 10.3837 1.07956 9.97031 1.07956H3.24256C2.00616 1.07956 1 2.08571 1 3.32212V16.7775C1 18.0139 2.00616 19.0201 3.24256 19.0201H9.97031C10.3837 19.0201 10.7178 18.6859 10.7178 18.2726C10.7178 17.8592 10.3837 17.5251 9.97031 17.5251H3.24256C2.82996 17.5251 2.49505 17.1902 2.49505 16.7775V3.32208C2.49505 2.90948 2.82992 2.57457 3.24256 2.57457ZM14.232 15.0673L18.7769 10.5821C18.9197 10.4409 18.9997 10.2502 18.9997 10.05C18.9997 9.84965 18.919 9.65826 18.7769 9.51774L14.232 5.03258C14.0869 4.88904 13.8971 4.81728 13.7072 4.81728C13.5143 4.81728 13.3215 4.89202 13.175 5.04004C12.8857 5.33381 12.8879 5.80699 13.1825 6.09703L16.4304 9.3024H7.727C7.31362 9.3024 6.97949 9.63657 6.97949 10.0499C6.97949 10.4633 7.31362 10.7975 7.727 10.7975H16.4304L13.1825 14.0028C12.8879 14.2929 12.8849 14.766 13.175 15.0598C13.465 15.3536 13.9389 15.3573 14.232 15.0673Z" fill="white"/>
<path d="M18.7769 10.5821L18.8707 10.6769L18.8706 10.6771L18.7769 10.5821ZM14.232 15.0673L14.1382 14.9725L14.1383 14.9724L14.232 15.0673ZM18.7769 9.51774L18.8706 9.42283L18.8707 9.42295L18.7769 9.51774ZM14.232 5.03258L14.1383 5.12749L14.1382 5.12734L14.232 5.03258ZM13.175 5.04004L13.08 4.94648L13.0802 4.94624L13.175 5.04004ZM13.1825 6.09703L13.276 6.00203L13.2761 6.00213L13.1825 6.09703ZM16.4304 9.3024L16.5241 9.2075L16.7554 9.43573H16.4304V9.3024ZM16.4304 10.7975V10.6641H16.7554L16.5241 10.8924L16.4304 10.7975ZM13.1825 14.0028L13.2761 14.0977L13.276 14.0978L13.1825 14.0028ZM13.175 15.0598L13.2698 14.9661L13.175 15.0598ZM9.97031 2.70791H3.24256V2.44124H9.97031V2.70791ZM10.8512 1.82706C10.8512 2.31408 10.4573 2.70791 9.97031 2.70791V2.44124C10.31 2.44124 10.5845 2.1668 10.5845 1.82706H10.8512ZM9.97031 0.946224C10.4573 0.946224 10.8512 1.34005 10.8512 1.82706H10.5845C10.5845 1.48733 10.31 1.21289 9.97031 1.21289V0.946224ZM3.24256 0.946224H9.97031V1.21289H3.24256V0.946224ZM0.866667 3.32212C0.866667 2.01208 1.93252 0.946224 3.24256 0.946224V1.21289C2.0798 1.21289 1.13333 2.15935 1.13333 3.32212H0.866667ZM0.866667 16.7775V3.32212H1.13333V16.7775H0.866667ZM3.24256 19.1535C1.93252 19.1535 0.866667 18.0876 0.866667 16.7775H1.13333C1.13333 17.9403 2.0798 18.8868 3.24256 18.8868V19.1535ZM9.97031 19.1535H3.24256V18.8868H9.97031V19.1535ZM10.8512 18.2726C10.8512 18.7596 10.4573 19.1535 9.97031 19.1535V18.8868C10.31 18.8868 10.5845 18.6123 10.5845 18.2726H10.8512ZM9.97031 17.3917C10.4573 17.3917 10.8512 17.7855 10.8512 18.2726H10.5845C10.5845 17.9328 10.31 17.6584 9.97031 17.6584V17.3917ZM3.24256 17.3917H9.97031V17.6584H3.24256V17.3917ZM2.62838 16.7775C2.62838 17.1165 2.90359 17.3917 3.24256 17.3917V17.6584C2.75632 17.6584 2.36172 17.2638 2.36172 16.7775H2.62838ZM2.62838 3.32208V16.7775H2.36172V3.32208H2.62838ZM3.24256 2.70791C2.90356 2.70791 2.62838 2.98311 2.62838 3.32208H2.36172C2.36172 2.83585 2.75628 2.44124 3.24256 2.44124V2.70791ZM18.8706 10.6771L14.3256 15.1622L14.1383 14.9724L18.6833 10.4872L18.8706 10.6771ZM19.133 10.05C19.133 10.2861 19.0386 10.5108 18.8707 10.6769L18.6831 10.4874C18.8008 10.3709 18.8663 10.2144 18.8663 10.05H19.133ZM18.8707 9.42295C19.0378 9.58829 19.133 9.81371 19.133 10.05H18.8663C18.8663 9.88559 18.8001 9.72823 18.6831 9.61252L18.8707 9.42295ZM14.3256 4.93768L18.8706 9.42283L18.6833 9.61264L14.1383 5.12749L14.3256 4.93768ZM13.7072 4.68395C13.9306 4.68395 14.1547 4.76847 14.3258 4.93782L14.1382 5.12734C14.0192 5.0096 13.8635 4.95061 13.7072 4.95061V4.68395ZM13.0802 4.94624C13.2525 4.77212 13.4799 4.68395 13.7072 4.68395V4.95061C13.5488 4.95061 13.3904 5.01193 13.2697 5.13383L13.0802 4.94624ZM13.0889 6.19203C12.7417 5.85009 12.7393 5.29249 13.08 4.94648L13.27 5.13359C13.0321 5.37513 13.0342 5.76389 13.276 6.00203L13.0889 6.19203ZM16.3368 9.3973L13.0888 6.19193L13.2761 6.00213L16.5241 9.2075L16.3368 9.3973ZM7.727 9.16907H16.4304V9.43573H7.727V9.16907ZM6.84616 10.0499C6.84616 9.56294 7.23998 9.16907 7.727 9.16907V9.43573C7.38727 9.43573 7.11282 9.7102 7.11282 10.0499H6.84616ZM7.727 10.9308C7.23999 10.9308 6.84616 10.537 6.84616 10.0499H7.11282C7.11282 10.3897 7.38726 10.6641 7.727 10.6641V10.9308ZM16.4304 10.9308H7.727V10.6641H16.4304V10.9308ZM13.0888 13.9079L16.3368 10.7025L16.5241 10.8924L13.2761 14.0977L13.0888 13.9079ZM13.0801 15.1535C12.7383 14.8073 12.7418 14.2496 13.0889 13.9078L13.276 14.0978C13.034 14.3361 13.0315 14.7248 13.2698 14.9661L13.0801 15.1535ZM14.3258 15.1621C13.9801 15.5042 13.4216 15.4994 13.0801 15.1535L13.2698 14.9661C13.5084 15.2077 13.8978 15.2105 14.1382 14.9725L14.3258 15.1621Z" fill="white"/>
</svg>
