<svg width="24" height="24" viewBox="0 0 24 24" fill="none" xmlns="http://www.w3.org/2000/svg">
<path d="M15.7116 7.64087H10.7446C10.3068 7.64087 9.95197 7.99568 9.95197 8.43349C9.95197 8.87127 10.3068 9.22611 10.7446 9.22611H15.7116C16.1497 9.22611 16.5042 8.87131 16.5042 8.43349C16.5042 7.99568 16.1494 7.64087 15.7116 7.64087Z" fill="white" stroke="white" stroke-width="0.3"/>
<path d="M17.6139 11.4717H10.7446C10.3068 11.4717 9.95197 11.8265 9.95197 12.2643C9.95197 12.7021 10.3068 13.0569 10.7446 13.0569H17.6139C18.0516 13.0569 18.4065 12.7021 18.4065 12.2643C18.4065 11.8265 18.0516 11.4717 17.6139 11.4717Z" fill="white" stroke="white" stroke-width="0.3"/>
<path d="M21.2074 2.67383H7.17824C6.74046 2.67383 6.38561 3.02864 6.38561 3.46645V10.9434H4.98537C3.33911 10.9434 1.99988 12.2829 1.99988 13.9289V18.3411C1.99988 19.9873 3.33911 21.3265 4.98537 21.3265C5.1201 21.3265 5.25275 21.3176 5.38248 21.3001H18.4597C20.4116 21.3001 22 19.712 22 17.7598V3.46645C22 3.02864 21.6452 2.67383 21.2074 2.67383ZM6.38565 18.3411C6.38565 19.0203 5.89924 19.5884 5.25646 19.7149H4.98541V19.7413C4.21314 19.7413 3.58512 19.113 3.58512 18.341V13.9289C3.58512 13.1569 4.21341 12.5286 4.98541 12.5286H6.38569V18.3411H6.38565ZM20.4148 17.7598C20.4148 18.8195 19.5197 19.7149 18.4597 19.7149H7.63558C7.84984 19.3035 7.97086 18.8361 7.97086 18.3411V4.25903H20.4148V17.7598Z" fill="white" stroke="white" stroke-width="0.3"/>
<path d="M15.7116 15.0647H10.7446C10.3068 15.0647 9.95197 15.4195 9.95197 15.8573C9.95197 16.2951 10.3068 16.6499 10.7446 16.6499H15.7116C16.1497 16.6499 16.5042 16.2951 16.5042 15.8573C16.5042 15.4195 16.1494 15.0647 15.7116 15.0647Z" fill="white" stroke="white" stroke-width="0.3"/>
</svg>
