<svg width="20" height="20" viewBox="0 0 20 20" fill="none" xmlns="http://www.w3.org/2000/svg">
<path fill-rule="evenodd" clip-rule="evenodd" d="M18.21 12.0741C17.725 11.6707 17.4581 11.0617 17.49 10.4309V10V9.56914C17.4581 8.9383 17.725 8.32932 18.21 7.92587L19.01 7.26455C19.3862 6.95336 19.4834 6.41563 19.24 5.99202L18.08 3.98803C17.9025 3.67987 17.5751 3.48918 17.22 3.48703C17.0997 3.48502 16.9803 3.50894 16.87 3.55717L15.87 3.91789C15.647 4.00535 15.4095 4.04955 15.17 4.04815C14.7868 4.04715 14.4119 3.93586 14.09 3.72751C13.8549 3.56478 13.6075 3.42072 13.35 3.29665C12.7873 3.0075 12.3942 2.46873 12.29 1.84376L12.12 0.84176C12.0408 0.351727 11.6154 -0.00630458 11.12 8.41592e-05H8.82002C8.32463 -0.00630458 7.89925 0.351727 7.82002 0.84176L7.65002 1.84376C7.5545 2.46084 7.17736 2.99804 6.63002 3.29665C6.37252 3.42072 6.1251 3.56478 5.89002 3.72751C5.56811 3.93586 5.19324 4.04715 4.81002 4.04815C4.57056 4.04955 4.33301 4.00535 4.11002 3.91789L3.11002 3.55717C2.99971 3.50894 2.88035 3.48502 2.76002 3.48703C2.40491 3.48918 2.07757 3.67987 1.90002 3.98803L0.760018 5.99202C0.518943 6.41797 0.620438 6.95612 1.00002 7.26455L1.80002 7.92587C2.28507 8.32932 2.55189 8.9383 2.52002 9.56914V10V10.4309C2.55189 11.0617 2.28507 11.6707 1.80002 12.0741L1.00002 12.7354C0.620438 13.0439 0.518943 13.582 0.760018 14.008L1.92002 16.012C2.09757 16.3201 2.42491 16.5108 2.78002 16.513C2.90035 16.515 3.01971 16.4911 3.13002 16.4428L4.13002 16.0821C4.35301 15.9947 4.59056 15.9504 4.83002 15.9519C5.21324 15.9528 5.58811 16.0641 5.91002 16.2725C6.1451 16.4352 6.39252 16.5793 6.65002 16.7034C7.21272 16.9925 7.60579 17.5313 7.71002 18.1562L7.88002 19.1582C7.95925 19.6483 8.38463 20.0063 8.88002 19.9999H11.18C11.6754 20.0063 12.1008 19.6483 12.18 19.1582L12.35 18.1562C12.4542 17.5313 12.8473 16.9925 13.41 16.7034C13.6675 16.5793 13.9149 16.4352 14.15 16.2725C14.4719 16.0641 14.8468 15.9528 15.23 15.9519C15.4695 15.9504 15.707 15.9947 15.93 16.0821L16.93 16.4428C17.0403 16.4911 17.1597 16.515 17.28 16.513C17.6351 16.5108 17.9625 16.3201 18.14 16.012L19.3 14.008C19.5281 13.5679 19.4005 13.0268 19 12.7354L18.21 12.0741ZM10 15.511C6.96245 15.511 4.50002 13.0436 4.50002 10C4.50002 6.95637 6.96245 4.48902 10 4.48902C13.0376 4.48902 15.5 6.95637 15.5 10C15.5 11.4616 14.9206 12.8633 13.8891 13.8968C12.8577 14.9304 11.4587 15.511 10 15.511ZM8.00002 10C8.00002 8.89323 8.89545 7.99601 10 7.99601C11.1046 7.99601 12 8.89323 12 10C12 11.1068 11.1046 12.004 10 12.004C8.89545 12.004 8.00002 11.1068 8.00002 10Z" fill="white"/>
</svg>
